<svg width="106" height="112" viewBox="0 0 106 112" fill="none" xmlns="http://www.w3.org/2000/svg">
<path d="M69.0015 93.3334C69.0015 102.17 61.838 109.333 53.0015 109.333C44.1649 109.333 37.0015 102.17 37.0015 93.3334M62.5828 25.2723C64.9055 22.8728 66.3348 19.6033 66.3348 16C66.3348 8.63622 60.3653 2.66669 53.0015 2.66669C45.6377 2.66669 39.6682 8.63622 39.6682 16C39.6682 19.6033 41.0975 22.8728 43.4201 25.2723M2.58453 36.3891C2.50801 28.6486 6.68125 21.4204 13.423 17.6164M103.418 36.3891C103.495 28.6486 99.3217 21.4204 92.58 17.6164M85.0015 51.7334C85.0015 44.378 81.6301 37.3239 75.6289 32.1229C69.6277 26.9219 61.4884 24 53.0015 24C44.5146 24 36.3752 26.9219 30.3741 32.1229C24.3729 37.3239 21.0015 44.378 21.0015 51.7334C21.0015 63.903 17.9835 72.8031 14.2178 79.1716C9.92596 86.43 7.78003 90.0592 7.86477 90.9261C7.96172 91.9179 8.14024 92.2309 8.94464 92.8192C9.64773 93.3334 13.1802 93.3334 20.2452 93.3334H85.7578C92.8228 93.3334 96.3552 93.3334 97.0583 92.8192C97.8627 92.2309 98.0413 91.9179 98.1382 90.9261C98.223 90.0592 96.077 86.43 91.7852 79.1716C88.0195 72.8031 85.0015 63.903 85.0015 51.7334Z" stroke="#269EA0" stroke-width="4" stroke-linecap="round" stroke-linejoin="round"/>
</svg>
