<svg width="112" height="100" viewBox="0 0 112 100" fill="none" xmlns="http://www.w3.org/2000/svg">
<path d="M55.9994 98L55.4657 97.1996C51.761 91.6424 49.9086 88.8639 47.4612 86.8524C45.2946 85.0716 42.7981 83.7355 40.1146 82.9206C37.0834 82 33.7439 82 27.0651 82H19.7327C13.7588 82 10.7718 82 8.49012 80.8374C6.48305 79.8148 4.85126 78.183 3.82861 76.1759C2.66602 73.8942 2.66602 70.9072 2.66602 64.9333V19.0667C2.66602 13.0928 2.66602 10.1058 3.82861 7.8241C4.85126 5.81704 6.48305 4.18525 8.49012 3.1626C10.7718 2 13.7588 2 19.7327 2H21.866C33.8138 2 39.7877 2 44.3511 4.32519C48.3653 6.37049 51.6289 9.63408 53.6742 13.6482C55.9993 18.2117 55.9994 24.1855 55.9994 36.1333M55.9994 98V36.1333M55.9994 98L56.533 97.1996C60.2377 91.6424 62.0901 88.8639 64.5375 86.8524C66.7041 85.0716 69.2006 83.7355 71.8841 82.9206C74.9154 82 78.2548 82 84.9336 82H92.266C98.2399 82 101.227 82 103.509 80.8374C105.516 79.8148 107.147 78.183 108.17 76.1759C109.333 73.8942 109.333 70.9072 109.333 64.9333V19.0667C109.333 13.0928 109.333 10.1058 108.17 7.8241C107.147 5.81704 105.516 4.18525 103.509 3.1626C101.227 2 98.2399 2 92.266 2H90.1327C78.1849 2 72.211 2 67.6476 4.32519C63.6334 6.37049 60.3698 9.63408 58.3245 13.6482C55.9994 18.2117 55.9994 24.1855 55.9994 36.1333" stroke="#269EA0" stroke-width="4" stroke-linecap="round" stroke-linejoin="round"/>
</svg>
