<svg width="112" height="112" viewBox="0 0 112 112" fill="none" xmlns="http://www.w3.org/2000/svg">
<path d="M109.333 67.7334C109.333 61.7595 109.333 58.7725 108.171 56.4908C107.148 54.4837 105.516 52.8519 103.509 51.8293C101.227 50.6667 98.2404 50.6667 92.2665 50.6667H62.3998C56.4259 50.6667 53.439 50.6667 51.1573 51.8293C49.1502 52.8519 47.5184 54.4837 46.4958 56.4908C45.3332 58.7725 45.3332 61.7595 45.3332 67.7334V81.1429C45.3332 87.1168 45.3332 90.1037 46.4958 92.3855C47.5184 94.3925 49.1502 96.0243 51.1573 97.047C53.439 98.2095 56.4259 98.2095 62.3998 98.2095H71.9834C73.9707 98.2095 74.9643 98.2095 75.9229 98.3862C76.7737 98.543 77.6022 98.8027 78.3902 99.1596C79.2782 99.5618 80.094 100.129 81.7257 101.263L93.3332 109.333V98.2095C98.3032 98.2095 100.788 98.2095 102.748 97.3976C105.362 96.315 107.439 94.2385 108.521 91.6248C109.333 89.6646 109.333 87.1796 109.333 82.2095V67.7334Z" fill="#269EA0"/>
<path d="M45.3332 72L28.9318 88.6064C26.644 90.9228 25.5001 92.081 24.5169 92.1627C23.6639 92.2335 22.8287 91.8906 22.2716 91.2408C21.6295 90.4918 21.6295 88.8639 21.6295 85.6082V76.8C21.6295 75.2122 21.6295 74.4183 21.3428 73.8105C21.0726 73.2375 20.7209 72.8481 20.1784 72.521C19.6029 72.1741 18.6793 72.0797 16.8322 71.8909C16.6647 71.8738 16.5041 71.854 16.3476 71.8311C9.35313 70.8066 3.85998 65.3134 2.83544 58.3189C2.6665 57.1656 2.6665 55.7894 2.6665 53.037V28.2667C2.6665 19.3058 2.6665 14.8254 4.4104 11.4028C5.94437 8.39225 8.39206 5.94456 11.4027 4.41058C14.8252 2.66669 19.3057 2.66669 28.2665 2.66669H67.7332C76.694 2.66669 81.1744 2.66669 84.597 4.41058C87.6076 5.94456 90.0553 8.39225 91.5893 11.4028C93.3332 14.8254 93.3332 19.3058 93.3332 28.2667V50.6667M93.3332 109.333L81.7257 101.263C80.094 100.129 79.2782 99.5618 78.3902 99.1596C77.6022 98.8027 76.7737 98.543 75.9229 98.3862C74.9643 98.2095 73.9707 98.2095 71.9834 98.2095H62.3998C56.4259 98.2095 53.439 98.2095 51.1573 97.0469C49.1502 96.0243 47.5184 94.3925 46.4958 92.3854C45.3332 90.1037 45.3332 87.1168 45.3332 81.1429V67.7334C45.3332 61.7595 45.3332 58.7725 46.4958 56.4908C47.5184 54.4837 49.1502 52.8519 51.1573 51.8293C53.439 50.6667 56.4259 50.6667 62.3998 50.6667H92.2665C98.2404 50.6667 101.227 50.6667 103.509 51.8293C105.516 52.8519 107.148 54.4837 108.171 56.4908C109.333 58.7725 109.333 61.7595 109.333 67.7333V82.2095C109.333 87.1796 109.333 89.6646 108.521 91.6248C107.439 94.2385 105.362 96.315 102.748 97.3976C100.788 98.2095 98.3032 98.2095 93.3332 98.2095V109.333Z" stroke="#269EA0" stroke-width="4" stroke-linecap="round" stroke-linejoin="round"/>
</svg>
