<svg width="100" height="100" viewBox="0 0 100 100" fill="none" xmlns="http://www.w3.org/2000/svg">
<path d="M67.3333 32.6667H67.36M32.6667 67.3333H32.6933M27.6 98H72.4C81.3608 98 85.8413 98 89.2638 96.2561C92.2744 94.7221 94.7221 92.2744 96.2561 89.2638C98 85.8413 98 81.3608 98 72.4V27.6C98 18.6392 98 14.1587 96.2561 10.7362C94.7221 7.72556 92.2744 5.27787 89.2638 3.7439C85.8413 2 81.3608 2 72.4 2H27.6C18.6392 2 14.1587 2 10.7362 3.7439C7.72556 5.27787 5.27787 7.72556 3.7439 10.7362C2 14.1587 2 18.6392 2 27.6V72.4C2 81.3608 2 85.8413 3.7439 89.2638C5.27787 92.2744 7.72556 94.7221 10.7362 96.2561C14.1587 98 18.6392 98 27.6 98ZM68.6667 32.6667C68.6667 33.403 68.0697 34 67.3333 34C66.597 34 66 33.403 66 32.6667C66 31.9303 66.597 31.3333 67.3333 31.3333C68.0697 31.3333 68.6667 31.9303 68.6667 32.6667ZM34 67.3333C34 68.0697 33.403 68.6667 32.6667 68.6667C31.9303 68.6667 31.3333 68.0697 31.3333 67.3333C31.3333 66.597 31.9303 66 32.6667 66C33.403 66 34 66.597 34 67.3333Z" stroke="#269EA0" stroke-width="4" stroke-linecap="round" stroke-linejoin="round"/>
</svg>
