<svg width="112" height="99" viewBox="0 0 112 99" fill="none" xmlns="http://www.w3.org/2000/svg">
<path d="M74.6665 47.3333H69.3332L61.3332 63.3333L50.6665 31.3333L42.6665 47.3333H37.3332M55.9633 13.391C45.3001 0.9248 27.5185 -2.42857 14.1582 8.98674C0.797938 20.402 -1.083 39.4879 9.40889 52.9888C17.3337 63.1864 39.8467 83.6584 50.3892 93.0661C52.3272 94.7955 53.2962 95.6601 54.4309 96.0005C55.416 96.296 56.5106 96.296 57.4957 96.0005C58.6304 95.6601 59.5994 94.7955 61.5374 93.0661C72.0799 83.6584 94.593 63.1864 102.518 52.9888C113.01 39.4879 111.358 20.282 97.7684 8.98674C84.1785 -2.3085 66.6265 0.9248 55.9633 13.391Z" stroke="#269EA0" stroke-width="4" stroke-linecap="round" stroke-linejoin="round"/>
</svg>
