<svg fill="none" xmlns="http://www.w3.org/2000/svg" viewBox="0 0 1000 1000">
<rect width="1000" height="1000" fill="white"/>
<path d="M676.437 570.18H328.902C236.742 570.18 211.416 395.977 328.902 382.595C300.527 235.391 505.483 193.132 550.039 316.154C601.864 283.755 676.437 322.258 664.477 406.777C766.955 391.047 785.012 570.18 676.437 570.18Z" fill="black"/>
<path d="M141.193 725.2C140.259 725.2 139.359 724.867 138.493 724.2C137.626 723.6 136.926 722.433 136.393 720.7C135.926 718.967 135.693 716.467 135.693 713.2C135.693 708.667 135.759 704.767 135.893 701.5C136.093 698.167 136.293 695.167 136.493 692.5C136.693 689.833 136.793 687.267 136.793 684.8C136.793 681.133 136.626 678.133 136.293 675.8C135.959 673.4 135.559 671.433 135.093 669.9C134.693 668.3 134.326 667 133.993 666C133.659 664.933 133.493 663.933 133.493 663C133.493 661.867 133.793 660.967 134.393 660.3C134.993 659.633 135.893 659.3 137.093 659.3C138.426 659.3 139.626 659.933 140.693 661.2C141.826 662.467 142.759 664.3 143.493 666.7C144.293 669.1 144.859 671.933 145.193 675.2L142.693 675.3C143.959 670.367 145.326 666.267 146.793 663C148.259 659.733 149.826 657.267 151.493 655.6C153.226 653.933 154.926 653.1 156.593 653.1C158.326 653.1 159.826 653.967 161.093 655.7C162.426 657.367 163.559 659.767 164.493 662.9C165.426 666.033 166.259 669.733 166.993 674C167.726 678.2 168.426 682.833 169.093 687.9C169.626 691.3 170.193 694.567 170.793 697.7C171.459 700.767 172.226 703.667 173.093 706.4C173.959 709.133 174.959 711.733 176.093 714.2L172.593 714.6C174.126 711 175.593 707.067 176.993 702.8C178.393 698.467 179.726 694.133 180.993 689.8C182.326 685.4 183.593 681.267 184.793 677.4C186.059 673.467 187.293 670.1 188.493 667.3C189.826 664.167 191.093 661.6 192.293 659.6C193.559 657.533 194.859 656 196.193 655C197.593 653.933 199.059 653.4 200.593 653.4C201.926 653.4 203.093 653.767 204.093 654.5C205.159 655.233 206.126 656.533 206.993 658.4C207.926 660.267 208.693 662.9 209.293 666.3C209.959 669.7 210.526 674.033 210.993 679.3C211.393 684.033 211.893 688.667 212.493 693.2C213.159 697.667 213.993 701.967 214.993 706.1C215.993 710.233 217.293 714.2 218.893 718C219.559 719.467 219.826 720.733 219.693 721.8C219.626 722.8 219.259 723.567 218.593 724.1C217.993 724.633 217.126 724.9 215.993 724.9C214.593 724.9 213.326 724.367 212.193 723.3C211.059 722.167 209.893 720.233 208.693 717.5C207.826 715.433 207.026 713 206.293 710.2C205.559 707.333 204.893 704.3 204.293 701.1C203.693 697.833 203.193 694.533 202.793 691.2C202.393 687.8 202.093 684.567 201.893 681.5C201.693 678.367 201.459 675.733 201.193 673.6C200.926 671.4 200.593 669.433 200.193 667.7C199.793 665.9 199.193 664.067 198.393 662.2L200.493 663.1C198.493 666.167 196.726 669.8 195.193 674C193.659 678.133 192.159 682.7 190.693 687.7C189.226 692.7 187.626 697.967 185.893 703.5C184.226 709.033 182.226 714.667 179.893 720.4C179.159 722.067 178.459 723.233 177.793 723.9C177.126 724.567 176.126 724.9 174.793 724.9C173.526 724.9 172.459 724.6 171.593 724C170.793 723.333 169.926 722.3 168.993 720.9C166.859 717.433 165.059 712.8 163.593 707C162.126 701.133 160.926 694.467 159.993 687C159.393 681.8 158.693 677.3 157.893 673.5C157.159 669.633 156.026 666.167 154.493 663.1H156.593C152.526 669.367 149.626 677.3 147.893 686.9C146.159 696.5 145.259 707.767 145.193 720.7C145.126 722.3 144.726 723.433 143.993 724.1C143.326 724.833 142.393 725.2 141.193 725.2ZM237.491 725.1C236.358 725.1 235.424 724.833 234.691 724.3C233.958 723.767 233.391 722.933 232.991 721.8C232.658 720.667 232.491 719.333 232.491 717.8C232.491 712.6 232.491 708.167 232.491 704.5C232.491 700.833 232.458 697.667 232.391 695C232.391 692.267 232.391 689.733 232.391 687.4C232.391 685.067 232.391 682.6 232.391 680C232.391 678.8 232.558 677.767 232.891 676.9C233.224 676.033 233.758 675.333 234.491 674.8C235.224 674.267 236.158 674 237.291 674C238.758 674 239.958 674.5 240.891 675.5C241.891 676.5 242.424 678.033 242.491 680.1C242.491 681.567 242.458 683.667 242.391 686.4C242.324 689.067 242.224 692.033 242.091 695.3C242.024 698.567 241.958 701.867 241.891 705.2C241.824 708.467 241.758 711.467 241.691 714.2C241.624 716.933 241.591 719.1 241.591 720.7C241.591 721.967 241.258 723.033 240.591 723.9C239.924 724.7 238.891 725.1 237.491 725.1ZM238.391 665.5C235.924 665.5 233.858 664.767 232.191 663.3C230.524 661.833 229.691 660.067 229.691 658C229.691 656.2 230.324 654.733 231.591 653.6C232.924 652.4 234.591 651.8 236.591 651.8C238.258 651.8 239.691 652.2 240.891 653C242.158 653.8 243.091 654.833 243.691 656.1C244.291 657.3 244.591 658.567 244.591 659.9C244.591 661.167 244.091 662.433 243.091 663.7C242.158 664.9 240.591 665.5 238.391 665.5ZM303.244 724.9C301.244 724.9 299.477 724 297.944 722.2C296.411 720.333 295.211 717.333 294.344 713.2C293.544 709 293.144 703.533 293.144 696.8C293.144 693.6 293.077 691.033 292.944 689.1C292.811 687.167 292.577 685.633 292.244 684.5C291.977 683.367 291.577 682.467 291.044 681.8C290.511 681.133 289.844 680.433 289.044 679.7C290.377 679.633 291.511 679.8 292.444 680.2C293.444 680.533 294.177 681.2 294.644 682.2C295.111 683.133 295.377 684.4 295.444 686C294.511 684.6 293.711 683.667 293.044 683.2C292.444 682.733 291.677 682.5 290.744 682.5C289.411 682.5 287.877 683.367 286.144 685.1C284.411 686.767 282.611 689.133 280.744 692.2C278.877 695.267 277.077 698.933 275.344 703.2C273.611 707.4 272.077 712.033 270.744 717.1C270.077 720.033 269.311 722.067 268.444 723.2C267.577 724.333 266.411 724.9 264.944 724.9C262.477 724.9 260.611 723.4 259.344 720.4C258.077 717.4 257.444 713.567 257.444 708.9C257.444 705.5 257.577 702.533 257.844 700C258.177 697.467 258.511 695.1 258.844 692.9C259.244 690.7 259.577 688.433 259.844 686.1C260.177 683.767 260.344 681.1 260.344 678.1C260.344 676.833 260.644 675.867 261.244 675.2C261.844 674.467 262.744 674.1 263.944 674.1C265.477 674.1 266.644 674.667 267.444 675.8C268.311 676.867 268.744 678.667 268.744 681.2C268.744 683.4 268.544 685.533 268.144 687.6C267.811 689.667 267.444 691.9 267.044 694.3C266.644 696.7 266.311 699.5 266.044 702.7C265.777 705.833 265.744 709.533 265.944 713.8L264.144 713.3C266.411 704.7 269.011 697.467 271.944 691.6C274.944 685.733 278.077 681.3 281.344 678.3C284.677 675.3 287.944 673.8 291.144 673.8C294.677 673.8 297.311 675.2 299.044 678C300.844 680.8 301.744 684.533 301.744 689.2C301.744 694.4 301.777 698.867 301.844 702.6C301.911 706.333 302.244 709.4 302.844 711.8C303.444 714.2 304.477 716.033 305.944 717.3C306.611 717.833 307.077 718.433 307.344 719.1C307.611 719.7 307.744 720.433 307.744 721.3C307.744 722.167 307.377 723 306.644 723.8C305.977 724.533 304.844 724.9 303.244 724.9ZM338.477 724.9C335.344 724.9 332.444 724.133 329.777 722.6C327.177 721.067 324.91 718.967 322.977 716.3C321.11 713.633 319.644 710.567 318.577 707.1C317.51 703.633 316.977 699.967 316.977 696.1C316.977 691.633 317.877 687.733 319.677 684.4C321.544 681.067 324.144 678.467 327.477 676.6C330.81 674.733 334.644 673.833 338.977 673.9C342.31 673.9 345.177 674.367 347.577 675.3C349.977 676.167 351.81 677.4 353.077 679C354.41 680.6 355.077 682.433 355.077 684.5C355.077 685.367 354.844 686.067 354.377 686.6C353.91 687.067 353.377 687.3 352.777 687.3C351.91 687.3 351.177 687.067 350.577 686.6C349.977 686.133 349.277 685.6 348.477 685C347.744 684.333 346.71 683.767 345.377 683.3C344.044 682.833 342.244 682.6 339.977 682.6C335.444 682.6 331.977 683.8 329.577 686.2C327.177 688.6 325.977 691.9 325.977 696.1C325.977 699.767 326.544 703.133 327.677 706.2C328.877 709.267 330.377 711.7 332.177 713.5C334.044 715.3 335.977 716.2 337.977 716.2C341.51 716.2 344.61 713.8 347.277 709C350.01 704.133 352.177 697.067 353.777 687.8C355.377 678.467 356.177 667.167 356.177 653.9C356.177 651.7 356.544 650.167 357.277 649.3C358.077 648.433 359.077 648 360.277 648C361.877 648 363.11 648.8 363.977 650.4C364.844 651.933 365.244 654.2 365.177 657.2C365.11 662.133 364.91 666.533 364.577 670.4C364.31 674.2 364.01 677.933 363.677 681.6C363.41 685.2 363.277 689.167 363.277 693.5C363.277 697.767 363.544 701.3 364.077 704.1C364.677 706.9 365.377 709.167 366.177 710.9C367.044 712.633 367.844 714.033 368.577 715.1C369.377 716.167 370.044 717.133 370.577 718C371.177 718.867 371.477 719.833 371.477 720.9C371.477 721.967 371.077 722.933 370.277 723.8C369.544 724.6 368.41 725 366.877 725C365.344 725 363.81 724.2 362.277 722.6C360.81 721 359.51 718.8 358.377 716C357.31 713.2 356.477 710.033 355.877 706.5C355.344 702.9 355.144 699.133 355.277 695.2L359.877 693.9C358.544 701.367 356.744 707.4 354.477 712C352.277 716.533 349.777 719.833 346.977 721.9C344.244 723.9 341.41 724.9 338.477 724.9ZM440.868 734.1C439.334 734.1 438.068 733.633 437.068 732.7C436.068 731.767 435.068 730.333 434.068 728.4C433.401 727 432.634 725.033 431.768 722.5C430.968 719.9 430.234 716.6 429.568 712.6C428.901 708.6 428.468 703.8 428.268 698.2L431.568 698.8C428.701 705.667 425.634 711 422.368 714.8C419.168 718.6 415.834 721.267 412.368 722.8C408.968 724.267 405.534 725 402.068 725C398.868 725 395.901 724.5 393.168 723.5C390.501 722.5 388.168 720.967 386.168 718.9C384.234 716.833 382.734 714.267 381.668 711.2C380.601 708.067 380.068 704.4 380.068 700.2C380.068 695.333 380.868 690.6 382.468 686C384.134 681.4 386.401 677.133 389.268 673.2C392.134 669.2 395.434 665.7 399.168 662.7C402.901 659.7 406.868 657.367 411.068 655.7C415.334 654.033 419.601 653.2 423.868 653.2C426.268 653.2 428.201 653.567 429.668 654.3C431.134 654.967 432.201 655.9 432.868 657.1C433.534 658.3 433.868 659.633 433.868 661.1C433.868 663.1 433.568 664.867 432.968 666.4C432.434 667.933 431.668 669.133 430.668 670C429.668 670.867 428.568 671.3 427.368 671.3C426.434 671.3 425.868 671 425.668 670.4C425.534 669.733 425.501 668.967 425.568 668.1C425.701 667.233 425.768 666.367 425.768 665.5C425.834 664.633 425.601 663.9 425.068 663.3C424.601 662.7 423.668 662.4 422.268 662.4C419.134 662.4 416.001 663.133 412.868 664.6C409.734 666 406.734 667.967 403.868 670.5C401.068 673.033 398.568 675.9 396.368 679.1C394.168 682.3 392.434 685.7 391.168 689.3C389.901 692.9 389.268 696.467 389.268 700C389.268 705.467 390.468 709.567 392.868 712.3C395.268 715.033 398.368 716.4 402.168 716.4C405.501 716.4 408.568 715.533 411.368 713.8C414.168 712.067 416.768 709.567 419.168 706.3C421.568 703.033 423.834 699.033 425.968 694.3C426.768 692.567 427.701 691.367 428.768 690.7C429.834 690.033 431.234 689.7 432.968 689.7C434.168 689.7 435.068 690.133 435.668 691C436.334 691.8 436.668 692.967 436.668 694.5C436.668 698.767 436.868 702.667 437.268 706.2C437.734 709.733 438.368 712.933 439.168 715.8C440.034 718.667 441.001 721.333 442.068 723.8C442.601 725.067 443.034 726.133 443.368 727C443.701 727.867 443.901 728.567 443.968 729.1C444.101 729.7 444.168 730.3 444.168 730.9C444.168 731.9 443.868 732.667 443.268 733.2C442.668 733.8 441.868 734.1 440.868 734.1ZM410.868 697.2C409.401 697.2 408.268 696.833 407.468 696.1C406.734 695.367 406.368 694.4 406.368 693.2C406.368 692.2 406.801 691.3 407.668 690.5C408.534 689.7 410.201 689 412.668 688.4C417.268 687.267 421.834 686.367 426.368 685.7C430.968 685.033 435.568 684.7 440.168 684.7C442.101 684.7 443.568 684.9 444.568 685.3C445.634 685.633 446.334 686.133 446.668 686.8C447.068 687.4 447.268 688.167 447.268 689.1C447.268 690.1 446.834 691.067 445.968 692C445.168 692.867 443.834 693.3 441.968 693.3C437.634 693.3 433.768 693.5 430.368 693.9C427.034 694.3 424.134 694.767 421.668 695.3C419.201 695.767 417.101 696.2 415.368 696.6C413.634 697 412.134 697.2 410.868 697.2ZM479.756 725C475.623 725 472.023 724.133 468.956 722.4C465.956 720.6 463.456 718.233 461.456 715.3C459.523 712.3 458.089 709 457.156 705.4C456.289 701.8 455.856 698.2 455.856 694.6C455.856 691.4 456.089 688.433 456.556 685.7C457.089 682.967 457.823 680.333 458.756 677.8C459.156 676.8 459.656 676.067 460.256 675.6C460.923 675.067 461.756 674.8 462.756 674.8C464.023 674.8 465.023 675.233 465.756 676.1C466.556 676.9 466.956 678 466.956 679.4C466.956 680.8 466.756 682.1 466.356 683.3C466.023 684.5 465.656 685.967 465.256 687.7C464.856 689.367 464.656 691.7 464.656 694.7C464.656 698.967 465.256 702.767 466.456 706.1C467.723 709.367 469.489 711.933 471.756 713.8C474.023 715.667 476.623 716.6 479.556 716.6C482.289 716.6 484.623 715.6 486.556 713.6C488.489 711.533 489.956 708.5 490.956 704.5C491.956 700.5 492.456 695.533 492.456 689.6C492.456 687.733 492.423 686.2 492.356 685C492.289 683.733 492.189 682.633 492.056 681.7C491.923 680.7 491.856 679.667 491.856 678.6C491.856 677.267 492.089 676.267 492.556 675.6C493.089 674.867 493.923 674.5 495.056 674.5C496.389 674.5 497.489 674.933 498.356 675.8C499.223 676.667 499.923 678.167 500.456 680.3C500.989 682.367 501.256 685.267 501.256 689C501.256 697.067 500.356 703.767 498.556 709.1C496.823 714.433 494.356 718.433 491.156 721.1C487.956 723.7 484.156 725 479.756 725ZM526.987 725C523.987 725 521.354 724.3 519.087 722.9C516.887 721.5 515.187 719.533 513.987 717C512.787 714.467 512.187 711.5 512.187 708.1C512.187 704.9 512.687 701.667 513.687 698.4C514.687 695.133 516.087 692.033 517.887 689.1C519.687 686.167 521.82 683.567 524.287 681.3C526.82 679.033 529.587 677.267 532.587 676C535.587 674.667 538.787 674 542.187 674C543.72 674 544.987 674.4 545.987 675.2C546.987 676 547.487 677.2 547.487 678.8C547.487 679.6 547.22 680.3 546.687 680.9C546.22 681.433 545.487 681.767 544.487 681.9C539.82 682.5 535.72 684.133 532.187 686.8C528.72 689.467 526.02 692.7 524.087 696.5C522.154 700.3 521.187 704.267 521.187 708.4C521.187 710.333 521.354 712.1 521.687 713.7C522.02 715.233 522.754 717.233 523.887 719.7L518.687 712.8C520.22 714.333 521.487 715.333 522.487 715.8C523.554 716.267 524.987 716.5 526.787 716.5C531.054 716.5 534.854 713.967 538.187 708.9C541.587 703.833 544.054 696.467 545.587 686.8C545.854 685.533 546.32 684.567 546.987 683.9C547.654 683.167 548.554 682.8 549.687 682.8C551.287 682.8 552.654 683.433 553.787 684.7C554.92 685.9 555.62 687.5 555.887 689.5C556.487 693.367 557.12 696.833 557.787 699.9C558.52 702.9 559.554 705.767 560.887 708.5C562.22 711.167 564.02 714 566.287 717C566.887 717.667 567.22 718.433 567.287 719.3C567.354 720.167 567.22 721.033 566.887 721.9C566.62 722.7 566.154 723.367 565.487 723.9C564.887 724.433 564.154 724.7 563.287 724.7C562.354 724.7 561.587 724.5 560.987 724.1C560.387 723.7 559.82 723.2 559.287 722.6C558.02 720.8 556.82 719.033 555.687 717.3C554.554 715.5 553.52 713.467 552.587 711.2C551.654 708.867 550.854 706.133 550.187 703C549.52 699.8 549.054 696.033 548.787 691.7L552.087 691.6C551.154 697.733 549.82 702.967 548.087 707.3C546.354 711.567 544.32 715 541.987 717.6C539.654 720.133 537.187 722 534.587 723.2C532.054 724.4 529.52 725 526.987 725ZM583.229 725.2C582.229 725.2 581.363 724.9 580.629 724.3C579.896 723.7 579.329 722.833 578.929 721.7C578.529 720.567 578.329 719.3 578.329 717.9C578.329 713.567 578.263 709.3 578.129 705.1C577.996 700.9 577.729 697.033 577.329 693.5C576.996 689.967 576.496 687.067 575.829 684.8C575.429 683.267 575.129 682.067 574.929 681.2C574.796 680.333 574.729 679.467 574.729 678.6C574.729 677.4 575.029 676.433 575.629 675.7C576.296 674.9 577.296 674.5 578.629 674.5C579.829 674.5 580.896 675.067 581.829 676.2C582.829 677.267 583.663 679.167 584.329 681.9C584.996 684.567 585.463 688.3 585.729 693.1C585.996 697.9 586.063 703.967 585.929 711.3L582.729 708.4C583.196 701.933 584.229 696.5 585.829 692.1C587.496 687.633 589.463 684.067 591.729 681.4C594.063 678.733 596.529 676.8 599.129 675.6C601.729 674.4 604.296 673.8 606.829 673.8C608.496 673.8 609.629 674.2 610.229 675C610.896 675.8 611.229 676.767 611.229 677.9C611.229 678.833 610.929 679.733 610.329 680.6C609.729 681.4 608.696 682 607.229 682.4C603.763 683.2 600.896 684.633 598.629 686.7C596.363 688.7 594.496 691.233 593.029 694.3C591.629 697.3 590.529 700.733 589.729 704.6C588.996 708.467 588.463 712.667 588.129 717.2C587.996 719.333 587.729 721 587.329 722.2C586.996 723.333 586.496 724.1 585.829 724.5C585.163 724.967 584.296 725.2 583.229 725.2ZM637.891 724.9C634.758 724.9 631.858 724.133 629.191 722.6C626.591 721.067 624.324 718.967 622.391 716.3C620.524 713.633 619.058 710.567 617.991 707.1C616.924 703.633 616.391 699.967 616.391 696.1C616.391 691.633 617.291 687.733 619.091 684.4C620.958 681.067 623.558 678.467 626.891 676.6C630.224 674.733 634.058 673.833 638.391 673.9C641.724 673.9 644.591 674.367 646.991 675.3C649.391 676.167 651.224 677.4 652.491 679C653.824 680.6 654.491 682.433 654.491 684.5C654.491 685.367 654.258 686.067 653.791 686.6C653.324 687.067 652.791 687.3 652.191 687.3C651.324 687.3 650.591 687.067 649.991 686.6C649.391 686.133 648.691 685.6 647.891 685C647.158 684.333 646.124 683.767 644.791 683.3C643.458 682.833 641.658 682.6 639.391 682.6C634.858 682.6 631.391 683.8 628.991 686.2C626.591 688.6 625.391 691.9 625.391 696.1C625.391 699.767 625.958 703.133 627.091 706.2C628.291 709.267 629.791 711.7 631.591 713.5C633.458 715.3 635.391 716.2 637.391 716.2C640.924 716.2 644.024 713.8 646.691 709C649.424 704.133 651.591 697.067 653.191 687.8C654.791 678.467 655.591 667.167 655.591 653.9C655.591 651.7 655.958 650.167 656.691 649.3C657.491 648.433 658.491 648 659.691 648C661.291 648 662.524 648.8 663.391 650.4C664.258 651.933 664.658 654.2 664.591 657.2C664.524 662.133 664.324 666.533 663.991 670.4C663.724 674.2 663.424 677.933 663.091 681.6C662.824 685.2 662.691 689.167 662.691 693.5C662.691 697.767 662.958 701.3 663.491 704.1C664.091 706.9 664.791 709.167 665.591 710.9C666.458 712.633 667.258 714.033 667.991 715.1C668.791 716.167 669.458 717.133 669.991 718C670.591 718.867 670.891 719.833 670.891 720.9C670.891 721.967 670.491 722.933 669.691 723.8C668.958 724.6 667.824 725 666.291 725C664.758 725 663.224 724.2 661.691 722.6C660.224 721 658.924 718.8 657.791 716C656.724 713.2 655.891 710.033 655.291 706.5C654.758 702.9 654.558 699.133 654.691 695.2L659.291 693.9C657.958 701.367 656.158 707.4 653.891 712C651.691 716.533 649.191 719.833 646.391 721.9C643.658 723.9 640.824 724.9 637.891 724.9ZM687.784 725.1C686.651 725.1 685.717 724.833 684.984 724.3C684.251 723.767 683.684 722.933 683.284 721.8C682.951 720.667 682.784 719.333 682.784 717.8C682.784 712.6 682.784 708.167 682.784 704.5C682.784 700.833 682.751 697.667 682.684 695C682.684 692.267 682.684 689.733 682.684 687.4C682.684 685.067 682.684 682.6 682.684 680C682.684 678.8 682.851 677.767 683.184 676.9C683.517 676.033 684.051 675.333 684.784 674.8C685.517 674.267 686.451 674 687.584 674C689.051 674 690.251 674.5 691.184 675.5C692.184 676.5 692.717 678.033 692.784 680.1C692.784 681.567 692.751 683.667 692.684 686.4C692.617 689.067 692.517 692.033 692.384 695.3C692.317 698.567 692.251 701.867 692.184 705.2C692.117 708.467 692.051 711.467 691.984 714.2C691.917 716.933 691.884 719.1 691.884 720.7C691.884 721.967 691.551 723.033 690.884 723.9C690.217 724.7 689.184 725.1 687.784 725.1ZM688.684 665.5C686.217 665.5 684.151 664.767 682.484 663.3C680.817 661.833 679.984 660.067 679.984 658C679.984 656.2 680.617 654.733 681.884 653.6C683.217 652.4 684.884 651.8 686.884 651.8C688.551 651.8 689.984 652.2 691.184 653C692.451 653.8 693.384 654.833 693.984 656.1C694.584 657.3 694.884 658.567 694.884 659.9C694.884 661.167 694.384 662.433 693.384 663.7C692.451 664.9 690.884 665.5 688.684 665.5ZM720.444 725C717.444 725 714.811 724.3 712.544 722.9C710.344 721.5 708.644 719.533 707.444 717C706.244 714.467 705.644 711.5 705.644 708.1C705.644 704.9 706.144 701.667 707.144 698.4C708.144 695.133 709.544 692.033 711.344 689.1C713.144 686.167 715.277 683.567 717.744 681.3C720.277 679.033 723.044 677.267 726.044 676C729.044 674.667 732.244 674 735.644 674C737.177 674 738.444 674.4 739.444 675.2C740.444 676 740.944 677.2 740.944 678.8C740.944 679.6 740.677 680.3 740.144 680.9C739.677 681.433 738.944 681.767 737.944 681.9C733.277 682.5 729.177 684.133 725.644 686.8C722.177 689.467 719.477 692.7 717.544 696.5C715.611 700.3 714.644 704.267 714.644 708.4C714.644 710.333 714.811 712.1 715.144 713.7C715.477 715.233 716.211 717.233 717.344 719.7L712.144 712.8C713.677 714.333 714.944 715.333 715.944 715.8C717.011 716.267 718.444 716.5 720.244 716.5C724.511 716.5 728.311 713.967 731.644 708.9C735.044 703.833 737.511 696.467 739.044 686.8C739.311 685.533 739.777 684.567 740.444 683.9C741.111 683.167 742.011 682.8 743.144 682.8C744.744 682.8 746.111 683.433 747.244 684.7C748.377 685.9 749.077 687.5 749.344 689.5C749.944 693.367 750.577 696.833 751.244 699.9C751.977 702.9 753.011 705.767 754.344 708.5C755.677 711.167 757.477 714 759.744 717C760.344 717.667 760.677 718.433 760.744 719.3C760.811 720.167 760.677 721.033 760.344 721.9C760.077 722.7 759.611 723.367 758.944 723.9C758.344 724.433 757.611 724.7 756.744 724.7C755.811 724.7 755.044 724.5 754.444 724.1C753.844 723.7 753.277 723.2 752.744 722.6C751.477 720.8 750.277 719.033 749.144 717.3C748.011 715.5 746.977 713.467 746.044 711.2C745.111 708.867 744.311 706.133 743.644 703C742.977 699.8 742.511 696.033 742.244 691.7L745.544 691.6C744.611 697.733 743.277 702.967 741.544 707.3C739.811 711.567 737.777 715 735.444 717.6C733.111 720.133 730.644 722 728.044 723.2C725.511 724.4 722.977 725 720.444 725ZM815.451 724.9C813.451 724.9 811.685 724 810.151 722.2C808.618 720.333 807.418 717.333 806.551 713.2C805.751 709 805.351 703.533 805.351 696.8C805.351 693.6 805.285 691.033 805.151 689.1C805.018 687.167 804.785 685.633 804.451 684.5C804.185 683.367 803.785 682.467 803.251 681.8C802.718 681.133 802.051 680.433 801.251 679.7C802.585 679.633 803.718 679.8 804.651 680.2C805.651 680.533 806.385 681.2 806.851 682.2C807.318 683.133 807.585 684.4 807.651 686C806.718 684.6 805.918 683.667 805.251 683.2C804.651 682.733 803.885 682.5 802.951 682.5C801.618 682.5 800.085 683.367 798.351 685.1C796.618 686.767 794.818 689.133 792.951 692.2C791.085 695.267 789.285 698.933 787.551 703.2C785.818 707.4 784.285 712.033 782.951 717.1C782.285 720.033 781.518 722.067 780.651 723.2C779.785 724.333 778.618 724.9 777.151 724.9C774.685 724.9 772.818 723.4 771.551 720.4C770.285 717.4 769.651 713.567 769.651 708.9C769.651 705.5 769.785 702.533 770.051 700C770.385 697.467 770.718 695.1 771.051 692.9C771.451 690.7 771.785 688.433 772.051 686.1C772.385 683.767 772.551 681.1 772.551 678.1C772.551 676.833 772.851 675.867 773.451 675.2C774.051 674.467 774.951 674.1 776.151 674.1C777.685 674.1 778.851 674.667 779.651 675.8C780.518 676.867 780.951 678.667 780.951 681.2C780.951 683.4 780.751 685.533 780.351 687.6C780.018 689.667 779.651 691.9 779.251 694.3C778.851 696.7 778.518 699.5 778.251 702.7C777.985 705.833 777.951 709.533 778.151 713.8L776.351 713.3C778.618 704.7 781.218 697.467 784.151 691.6C787.151 685.733 790.285 681.3 793.551 678.3C796.885 675.3 800.151 673.8 803.351 673.8C806.885 673.8 809.518 675.2 811.251 678C813.051 680.8 813.951 684.533 813.951 689.2C813.951 694.4 813.985 698.867 814.051 702.6C814.118 706.333 814.451 709.4 815.051 711.8C815.651 714.2 816.685 716.033 818.151 717.3C818.818 717.833 819.285 718.433 819.551 719.1C819.818 719.7 819.951 720.433 819.951 721.3C819.951 722.167 819.585 723 818.851 723.8C818.185 724.533 817.051 724.9 815.451 724.9ZM840.996 725C838.062 725 835.596 724.633 833.596 723.9C831.596 723.167 830.096 722.233 829.096 721.1C828.162 719.967 827.696 718.8 827.696 717.6C827.696 716.6 827.996 715.767 828.596 715.1C829.196 714.433 830.062 714.1 831.196 714.1C831.862 714.1 832.396 714.233 832.796 714.5C833.262 714.767 833.762 715.067 834.296 715.4C834.896 715.733 835.696 716.033 836.696 716.3C837.696 716.5 839.062 716.6 840.796 716.6C845.062 716.6 848.796 716.1 851.996 715.1C855.262 714.033 857.496 712.233 858.696 709.7C858.229 708.233 857.196 707.067 855.596 706.2C854.062 705.333 852.196 704.6 849.996 704C847.796 703.333 845.496 702.667 843.096 702C840.762 701.267 838.596 700.433 836.596 699.5C834.596 698.567 832.929 697.3 831.596 695.7C830.329 694.1 829.696 692.067 829.696 689.6C829.696 687.267 830.429 685.133 831.896 683.2C833.362 681.2 835.296 679.5 837.696 678.1C840.162 676.633 842.862 675.533 845.796 674.8C848.729 674.067 851.696 673.7 854.696 673.7C856.496 673.7 857.996 674 859.196 674.6C860.396 675.2 861.296 675.933 861.896 676.8C862.562 677.6 862.896 678.433 862.896 679.3C862.896 680.3 862.596 681.1 861.996 681.7C861.462 682.3 860.629 682.6 859.496 682.6C859.096 682.6 858.696 682.567 858.296 682.5C857.896 682.433 857.396 682.4 856.796 682.4C856.262 682.333 855.596 682.3 854.796 682.3C850.796 682.3 847.296 682.933 844.296 684.2C841.362 685.4 839.162 687.233 837.696 689.7C838.029 691.033 838.962 692.133 840.496 693C842.096 693.867 843.996 694.6 846.196 695.2C848.462 695.8 850.796 696.467 853.196 697.2C855.596 697.867 857.829 698.7 859.896 699.7C862.029 700.633 863.762 701.9 865.096 703.5C866.429 705.1 867.096 707.133 867.096 709.6C867.096 713.133 865.862 716.067 863.396 718.4C860.996 720.667 857.829 722.333 853.896 723.4C849.962 724.467 845.662 725 840.996 725Z" fill="black"/>
<path d="M429.627 444C393.312 444 381.948 530.248 395.572 573.254C398.948 583.912 410.681 583.741 413.726 572.984C420.806 547.967 422.73 509.289 433.594 506.491C452.395 501.649 460.846 616.174 498.446 616.174C536.045 616.174 550.708 501.514 566.402 506.491C577.673 510.066 578.894 542.349 584.435 567.296C587.269 580.055 600.887 580.328 604.474 567.76C617.84 520.94 607.318 444 568.989 444C523.11 444 522.593 531.193 498.446 528.244C474.299 525.294 478.439 444 429.627 444Z" fill="white"/>
<circle cx="431.5" cy="420.5" r="27.5" fill="white"/>
<circle cx="567.5" cy="420.5" r="27.5" fill="white"/>
</svg>