<svg version="1.2" xmlns="http://www.w3.org/2000/svg" viewBox="0 0 256 296" width="76">
	<title>mg-icon-blanc (2)</title>
	<style>
		.s0 { fill: #ffffff } 
		.s1 { display: none;fill: #ffffff } 
	</style>
	<g>
		<g id="Logo_n_xB0_3">
			<g>
				<path class="s0" d="m255.5 135.5c0-14-4.6-27.6-12.4-39.3-17.3-26.1-54.2-57.5-113.6-9 0 0-1.1 0.9-1.3 1-0.2-0.1-1.3-1-1.3-1-59.3-48.4-96.3-17-113.6 9-7.8 11.7-12.4 25.2-12.4 39.3l-0.8 159.8c0 0.1 24.1 0.1 24.1 0.1h0.1c0-0.1 0.8-154.9 0.8-154.9-0.5-18.1 7.7-35.2 22.3-46.5 27.5-21.3 60.7 9.2 66.2 13.5l0.2-0.2c0 0 0 0.1-0.1 0.2-0.2 0.2-0.3 0.4-0.5 0.6-1.2 1.5-2.4 3-3.6 4.4-2.4 3-5.6 6.5-7.2 10-5.4 10.6-4.9 23.6 1.1 33.8 11.6 20 39.1 19.5 50.3-0.7 7.2-12.4 5.9-29.3-3.7-40.2-2.2-2.7-4.6-5.5-6.9-8.4 7-5.7 39-33.6 65.6-13 14.6 11.3 22.9 28.4 22.3 46.5l0.8 154.8c0 0.1 24.1 0.1 24.1 0.1h0.1c0-0.1-0.8-159.9-0.8-159.9zm-129.1 15c-8.1-2.6-9.7-15.3-3.8-21 1.8-1.9 3.6-3.9 5.4-5.8l5.7 6.2 0.3 0.3c1.1 1.2 2 2.6 2.5 4.2 2.6 6.6-1.7 17.9-10.1 16z"/>
				<path class="s1" d="m113.9 107.4c0 0 0 0.1-0.1 0.2l0.2-0.2z"/>
				<path class="s1" d="m113.9 107.4c0 0 0 0.1-0.1 0.2-0.2 0.2-0.3 0.4-0.5 0.6 0 0 0 0-0.1-0.1l0.5-0.5z"/>
			</g>
			<path class="s0" d="m91.1 24.6c0 13.6-11 24.6-24.6 24.6-13.6 0-24.6-11-24.6-24.6 0-13.6 11-24.6 24.6-24.6 13.6 0 24.6 11 24.6 24.6zm123.5 0c0 13.6-11 24.6-24.6 24.6-13.6 0-24.6-11-24.6-24.6 0-13.6 11-24.6 24.6-24.6 13.6 0 24.6 11 24.6 24.6z"/>
		</g>
	</g>
</svg>
