<svg width="112" height="112" viewBox="0 0 112 112" fill="none" xmlns="http://www.w3.org/2000/svg">
<path d="M109.333 67.7334C109.333 61.7595 109.333 58.7725 108.17 56.4908C107.147 54.4837 105.516 52.8519 103.509 51.8293C101.227 50.6667 98.2399 50.6667 92.266 50.6667H62.3993C56.4255 50.6667 53.4385 50.6667 51.1568 51.8293C49.1497 52.8519 47.5179 54.4837 46.4953 56.4908C45.3327 58.7725 45.3327 61.7595 45.3327 67.7334V81.1429C45.3327 87.1168 45.3327 90.1037 46.4953 92.3855C47.5179 94.3925 49.1497 96.0243 51.1568 97.047C53.4385 98.2095 56.4255 98.2095 62.3993 98.2095H71.9829C73.9702 98.2095 74.9638 98.2095 75.9224 98.3862C76.7732 98.543 77.6017 98.8027 78.3898 99.1596C79.2777 99.5618 80.0935 100.129 81.7252 101.263L93.3327 109.333V98.2095C98.3027 98.2095 100.788 98.2095 102.748 97.3976C105.362 96.315 107.438 94.2385 108.521 91.6248C109.333 89.6646 109.333 87.1796 109.333 82.2095V67.7334Z" fill="#269EA0"/>
<path d="M45.3327 72L28.9313 88.6064C26.6435 90.9228 25.4996 92.081 24.5164 92.1627C23.6634 92.2335 22.8282 91.8906 22.2711 91.2408C21.629 90.4918 21.629 88.8639 21.629 85.6082V76.8C21.629 75.2122 21.629 74.4183 21.3424 73.8105C21.0721 73.2375 20.7204 72.8481 20.1779 72.521C19.6024 72.1741 18.6789 72.0797 16.8317 71.8909C16.6642 71.8738 16.5036 71.854 16.3471 71.8311C9.35265 70.8066 3.85949 65.3134 2.83495 58.3189C2.66602 57.1656 2.66602 55.7894 2.66602 53.037V28.2667C2.66602 19.3058 2.66602 14.8254 4.40991 11.4028C5.94389 8.39225 8.39157 5.94456 11.4022 4.41058C14.8248 2.66669 19.3052 2.66669 28.266 2.66669H67.7327C76.6935 2.66669 81.1739 2.66669 84.5965 4.41058C87.6071 5.94456 90.0548 8.39225 91.5888 11.4028C93.3327 14.8254 93.3327 19.3058 93.3327 28.2667V50.6667M93.3327 109.333L81.7252 101.263C80.0935 100.129 79.2777 99.5618 78.3898 99.1596C77.6017 98.8027 76.7732 98.543 75.9224 98.3862C74.9638 98.2095 73.9702 98.2095 71.9829 98.2095H62.3993C56.4255 98.2095 53.4385 98.2095 51.1568 97.0469C49.1497 96.0243 47.5179 94.3925 46.4953 92.3854C45.3327 90.1037 45.3327 87.1168 45.3327 81.1429V67.7334C45.3327 61.7595 45.3327 58.7725 46.4953 56.4908C47.5179 54.4837 49.1497 52.8519 51.1568 51.8293C53.4385 50.6667 56.4255 50.6667 62.3993 50.6667H92.266C98.2399 50.6667 101.227 50.6667 103.509 51.8293C105.516 52.8519 107.147 54.4837 108.17 56.4908C109.333 58.7725 109.333 61.7595 109.333 67.7333V82.2095C109.333 87.1796 109.333 89.6646 108.521 91.6248C107.438 94.2385 105.362 96.315 102.748 97.3976C100.788 98.2095 98.3027 98.2095 93.3327 98.2095V109.333Z" stroke="#269EA0" stroke-width="4" stroke-linecap="round" stroke-linejoin="round"/>
</svg>
