<svg width="128" height="128" viewBox="0 0 128 128" fill="none" xmlns="http://www.w3.org/2000/svg">
<path d="M21.3328 116.36C24.5466 117.333 28.8873 117.333 36.266 117.333H91.7327C99.1114 117.333 103.452 117.333 106.666 116.36M21.3328 116.36C20.6437 116.151 20.0065 115.897 19.4022 115.589C16.3916 114.055 13.9439 111.608 12.4099 108.597C10.666 105.175 10.666 100.694 10.666 91.7333V36.2667C10.666 27.3058 10.666 22.8254 12.4099 19.4028C13.9439 16.3922 16.3916 13.9445 19.4022 12.4106C22.8248 10.6667 27.3052 10.6667 36.266 10.6667H91.7327C100.694 10.6667 105.174 10.6667 108.597 12.4106C111.607 13.9445 114.055 16.3922 115.589 19.4028C117.333 22.8254 117.333 27.3058 117.333 36.2667V91.7333C117.333 100.694 117.333 105.175 115.589 108.597C114.055 111.608 111.607 114.055 108.597 115.589C107.992 115.897 107.355 116.151 106.666 116.36M21.3328 116.36C21.3346 112.043 21.3604 109.759 21.7426 107.838C23.4259 99.3753 30.0414 92.7599 38.5041 91.0766C40.5649 90.6667 43.043 90.6667 47.9994 90.6667H79.9994C84.9557 90.6667 87.4338 90.6667 89.4946 91.0766C97.9573 92.7599 104.573 99.3753 106.256 107.838C106.638 109.759 106.664 112.043 106.666 116.36M85.3327 50.6667C85.3327 62.4487 75.7814 72 63.9994 72C52.2173 72 42.666 62.4487 42.666 50.6667C42.666 38.8846 52.2173 29.3333 63.9994 29.3333C75.7814 29.3333 85.3327 38.8846 85.3327 50.6667Z" stroke="#269EA0" stroke-width="4" stroke-linecap="round" stroke-linejoin="round"/>
</svg>
